<?xml version="1.0" encoding="UTF-8"?>
<!-- Simple, modern SVG logo for Prodmaster (keeps small size and scales crisply) -->
<svg width="256" height="256" viewBox="0 0 256 256" xmlns="http://www.w3.org/2000/svg" role="img" aria-label="Prodmaster logo">
  <defs>
    <linearGradient id="g" x1="0" y1="0" x2="1" y2="1">
      <stop offset="0%" stop-color="#6A11CB" />
      <stop offset="100%" stop-color="#2575FC" />
    </linearGradient>
  </defs>
  <rect width="256" height="256" rx="36" fill="url(#g)" />
  <!-- stylized PM letters with small gear hint -->
  <g transform="translate(32,36) scale(1.2)" fill="#fff" font-family="Inter, Roboto, Arial, sans-serif" font-weight="700">
    <text x="16" y="130" font-size="96">PM</text>
  </g>
  <!-- small gear accent -->
  <g transform="translate(180,36) scale(0.34)" fill="#fff" opacity="0.92">
    <path d="M48 32a16 16 0 1 0 0 32 16 16 0 0 0 0-32zm0-12l6-12 10 6 10-6 6 12 12 6-6 10 6 10-12 6-6 12-10-6-10 6-6-12-12-6 6-10-6-10 12-6z"/>
  </g>
</svg>
